<svg width="12" height="72" viewBox="0 0 12 72" fill="none" xmlns="http://www.w3.org/2000/svg">
<path d="M11 1.5C11.2761 1.5 11.5 1.27614 11.5 1C11.5 0.723858 11.2761 0.5 11 0.5V1.5ZM11.3536 68.3536C11.5488 68.1583 11.5488 67.8417 11.3536 67.6464L8.17157 64.4645C7.97631 64.2692 7.65973 64.2692 7.46447 64.4645C7.2692 64.6597 7.2692 64.9763 7.46447 65.1716L10.2929 68L7.46447 70.8284C7.2692 71.0237 7.2692 71.3403 7.46447 71.5355C7.65973 71.7308 7.97631 71.7308 8.17157 71.5355L11.3536 68.3536ZM0.5 11V58H1.5V11H0.5ZM0.5 58C0.5 63.799 5.20101 68.5 11 68.5V67.5C5.7533 67.5 1.5 63.2467 1.5 58H0.5ZM11 0.5C5.20101 0.5 0.5 5.20101 0.5 11H1.5C1.5 5.75329 5.7533 1.5 11 1.5V0.5Z" fill="#CFA56F"/>
</svg>
