<svg width="152" height="44" viewBox="0 0 152 44" fill="none" xmlns="http://www.w3.org/2000/svg">
<path d="M52.9668 21.4898V20.0216C52.9668 18.8996 52.6311 18.2676 50.8663 18.2676H44.1233C42.3378 18.2676 42.0228 18.8996 42.0228 20.0216V21.4898H41.9181V18.022H42.8C44.7741 15.7176 46.2446 10.3932 46.371 5.27308C46.371 4.64111 45.8456 4.61998 45.0269 4.61998H44.628V4.51834H53.03V4.61998H52.6104C51.8756 4.61998 51.4756 4.64011 51.4756 5.19056V18.021H53.0725V21.4888H52.9679L52.9668 21.4898ZM49.8166 18.022V4.76288H46.5192C46.4984 10.0048 45.0072 15.5536 42.9907 18.021H49.8176L49.8166 18.022Z" fill="#14171C"/>
<path d="M56.6218 13.4936C56.6218 15.2678 57.3782 17.8792 59.6674 17.8792C60.8021 17.8792 61.6839 17.4102 62.2508 16.5538L62.3347 16.5951C61.7461 17.6759 60.6756 18.5333 59.0995 18.5333C55.8021 18.5333 54.9192 15.7589 54.9192 13.556C54.9192 11.5978 55.9067 8.43592 58.9316 8.43592C61.4736 8.43592 62.4187 10.6589 62.4187 12.3726C62.4187 12.7399 62.3979 13.1273 62.314 13.4946H56.6218V13.4936ZM60.3181 13.2491C60.9275 13.2491 60.9067 12.3927 60.9067 12.0043C60.9067 10.8008 60.487 8.57781 58.9326 8.57781C57.1896 8.57781 56.6435 11.801 56.6218 13.2491H60.3181Z" fill="#14171C"/>
<path d="M72.4383 8.80221C71.7451 8.80221 71.3668 8.84347 71.3668 9.3738V17.5944C71.3668 18.2062 71.829 18.166 72.5223 18.166H72.9005V18.2676H68.3637V18.166H68.742C69.4352 18.166 69.8974 18.2072 69.8974 17.5944V8.94511H67.1668V14.0038C67.1668 16.0849 66.8725 18.8382 64.5627 18.8382C63.8062 18.8382 63.344 18.3692 63.1979 18.022C63.1979 17.5531 63.4497 17.2261 63.8705 17.2261C64.5212 17.2261 65.0259 17.9607 65.1098 18.654C66.4746 18.3682 67.0218 16.4713 67.0218 14.0854V9.41405C67.0218 8.84247 66.4964 8.80221 65.6777 8.80221H65.258V8.70058H72.8404V8.80221H72.4383Z" fill="#14171C"/>
<path d="M82.4363 13.4936C82.4363 15.5334 81.5326 18.5322 78.3824 18.5322C75.2321 18.5322 74.3078 15.5546 74.3078 13.4936C74.3078 11.4327 75.3161 8.43491 78.3824 8.43491C81.4487 8.43491 82.4363 11.474 82.4363 13.4936ZM80.8187 13.392C80.7347 12.0254 80.1254 8.4963 78.0041 8.59894C75.8829 8.70058 75.8404 12.2297 75.9243 13.6164C76.029 15.0031 76.6383 18.4709 78.7389 18.3692C80.8808 18.2877 80.9233 14.7998 80.8187 13.392Z" fill="#14171C"/>
<path d="M88.087 18.2666H83.8435V18.1649H84.1161C84.7886 18.1649 85.1876 18.1237 85.1876 17.6145V9.35267C85.1876 8.84247 84.8518 8.80221 84.1378 8.80221H83.8435V8.70058H88.1917C90.229 8.70058 91.2798 9.45531 91.2798 10.9849C91.2798 12.0868 90.629 12.9633 89.1585 13.2491C90.9855 13.4534 91.7627 14.351 91.7627 15.778C91.7627 17.4505 90.313 18.2666 88.087 18.2666ZM86.6798 8.84247V13.1867H87.8767C89.4311 13.1867 89.8933 12.1462 89.8933 10.9839C89.8933 9.82161 89.3264 8.84247 87.8767 8.84247H86.6798ZM86.6798 18.1227H88.0031C89.6414 18.1227 90.2922 17.0006 90.2922 15.7357C90.2922 14.4708 89.7254 13.3286 87.9399 13.3286H86.6798V18.1227Z" fill="#14171C"/>
<path d="M101.278 13.4936C101.278 15.5334 100.374 18.5322 97.2238 18.5322C94.0736 18.5322 93.1492 15.5546 93.1492 13.4936C93.1492 11.4327 94.1575 8.43491 97.2238 8.43491C100.29 8.43491 101.278 11.474 101.278 13.4936ZM99.6601 13.392C99.5762 12.0254 98.9668 8.4963 96.8456 8.59894C94.7244 8.70058 94.6819 12.2297 94.7658 13.6164C94.8705 15.0031 95.4798 18.4709 97.5803 18.3692C99.7223 18.2877 99.7648 14.7998 99.6601 13.392Z" fill="#14171C"/>
<path d="M112.893 8.80221C112.2 8.80221 111.738 8.76096 111.738 9.3738V17.5944C111.738 18.2062 112.2 18.166 112.893 18.166H113.271V18.2676H108.735V18.166H109.113C109.785 18.166 110.248 18.2072 110.248 17.5944V9.88299L105.689 17.3277V17.5924C105.71 18.2042 106.151 18.1639 106.845 18.1639H107.223V18.2656H102.686V18.1639H103.064C103.758 18.1639 104.22 18.2052 104.22 17.5924V9.37279C104.22 8.76096 103.758 8.80121 103.064 8.80121H102.686V8.69957H107.223V8.80121H106.845C106.151 8.80121 105.71 8.75995 105.689 9.37279V17.0218L110.248 9.57607V9.37179C110.248 8.75995 109.785 8.8002 109.113 8.8002H108.735V8.69856H113.271V8.8002H112.893V8.80221ZM106.634 7.35413C106.907 7.55841 107.391 7.72144 107.915 7.72144C108.439 7.72144 108.923 7.55841 109.196 7.35413C109.175 7.04821 108.86 5.84466 109.196 5.45723C109.343 5.29421 109.553 5.2127 109.763 5.2127C110.035 5.2127 110.33 5.3556 110.519 5.58C110.603 5.94731 110.498 6.29348 110.351 6.57927C110.12 7.00796 109.574 7.86433 107.915 7.86433C106.256 7.86433 105.71 7.00796 105.479 6.57927C105.332 6.29348 105.227 5.94731 105.311 5.58C105.501 5.3556 105.773 5.2127 106.067 5.2127C106.278 5.2127 106.487 5.29421 106.634 5.45723C106.97 5.84466 106.655 7.04821 106.634 7.35413Z" fill="#14171C"/>
<path d="M128.941 18.1036V21.4485H128.836V20.1836C128.836 19.1028 128.668 18.3481 126.904 18.3481H121.59C119.825 18.3481 119.657 19.1028 119.657 20.1836V21.4485H119.552V18.1036H120.456C122.199 15.9823 122.892 11.4538 123.019 9.39393C122.998 8.84347 122.493 8.80221 121.675 8.80221H121.276V8.70058H128.88V8.80221H128.481C127.788 8.80221 127.409 8.82234 127.409 9.35267V18.1036H128.943H128.941ZM125.937 18.1036V8.94511H123.185C123.165 10.6589 122.513 15.7377 120.644 18.1036H125.937Z" fill="#14171C"/>
<path d="M138.519 13.4936C138.519 15.5334 137.616 18.5322 134.465 18.5322C131.315 18.5322 130.391 15.5546 130.391 13.4936C130.391 11.4327 131.399 8.43491 134.465 8.43491C137.532 8.43491 138.519 11.474 138.519 13.4936ZM136.902 13.392C136.818 12.0254 136.208 8.4963 134.087 8.59894C131.966 8.70058 131.923 12.2297 132.007 13.6164C132.112 15.0031 132.721 18.4709 134.822 18.3692C136.964 18.2877 137.006 14.7998 136.902 13.392Z" fill="#14171C"/>
<path d="M151.542 8.80221C150.807 8.80221 150.366 8.76096 150.366 9.3738V17.5944C150.366 18.2062 150.807 18.166 151.501 18.166H151.879V18.2676H147.342V18.166H147.741C148.413 18.166 148.876 18.2072 148.876 17.5944V9.16952L145.977 17.4505H145.221L141.965 9.35267L141.985 17.532C141.985 18.2052 142.595 18.1639 143.35 18.1639H144.148V18.2656H140.241V18.1639H140.851C141.397 18.1639 141.817 18.1841 141.817 17.532V9.43418C141.817 8.78108 141.375 8.80221 140.788 8.80221H140.241V8.70058H143.203L146.207 16.1453L148.875 8.70058H151.879V8.80221H151.542Z" fill="#14171C"/>
<path d="M43.0415 30.3121C42.7202 30.3121 42.4466 30.2558 42.2207 30.1441C41.9948 30.0324 41.8228 29.8774 41.7036 29.6792C41.5845 29.4809 41.5254 29.2505 41.5254 28.9878C41.5254 28.7252 41.5751 28.5229 41.6736 28.3518C41.772 28.1818 41.9005 28.0429 42.0601 27.9352C42.2187 27.8286 42.3907 27.744 42.5741 27.6816C42.7575 27.6203 42.9368 27.5709 43.1109 27.5357L44.8466 27.1845C44.8632 26.7367 44.8124 26.4006 44.6933 26.1782C44.5741 25.9558 44.4124 25.8079 44.2062 25.7344C44 25.661 43.7751 25.6247 43.5316 25.6247C43.4176 25.6247 43.2964 25.6318 43.1679 25.6439C43.0394 25.6569 42.9036 25.6781 42.7617 25.7073C42.6197 25.7364 42.4653 25.7767 42.3005 25.827C42.1347 25.8773 41.9565 25.9397 41.7658 26.0142L41.7357 25.6922C41.856 25.6398 41.9886 25.5915 42.1347 25.5462C42.2798 25.501 42.4321 25.4607 42.5917 25.4245C42.7503 25.3883 42.9098 25.3611 43.0705 25.342C43.2311 25.3228 43.3845 25.3128 43.5316 25.3128C43.856 25.3128 44.1389 25.3681 44.3793 25.4788C44.6197 25.5895 44.8062 25.7626 44.9389 26.0001C45.0705 26.2376 45.1368 26.5445 45.1368 26.9209V30.2236H44.8456V29.4437H44.7855C44.6715 29.5997 44.5254 29.7436 44.3461 29.8754C44.1668 30.0072 43.9658 30.1129 43.742 30.1924C43.5181 30.2719 43.2839 30.3121 43.0394 30.3121H43.0415ZM43.0415 30.0002C43.2591 30.0002 43.4808 29.9619 43.7067 29.8855C43.9326 29.809 44.144 29.6862 44.3409 29.5172C44.5378 29.3481 44.7036 29.1257 44.8373 28.85L44.8477 27.4079C44.7845 27.4371 44.6984 27.4693 44.5917 27.5055C44.485 27.5418 44.3254 27.583 44.115 27.6323C43.9047 27.6806 43.6104 27.739 43.2321 27.8074C42.9813 27.8527 42.7503 27.9191 42.5399 28.0047C42.3295 28.0912 42.1596 28.212 42.0311 28.3679C41.9026 28.5239 41.8383 28.7272 41.8383 28.9768C41.8383 29.3471 41.9513 29.6097 42.1772 29.7657C42.4031 29.9217 42.6912 29.9992 43.0425 29.9992L43.0415 30.0002Z" fill="#14171C"/>
<path d="M46.9938 30.2246V25.4114H50.1036V25.6942H47.1036L47.2943 25.4607V30.2246H46.9938Z" fill="#14171C"/>
<path d="M53.4155 30.3121C52.8601 30.3121 52.4 30.2025 52.0332 29.9831C51.6674 29.7637 51.3927 29.4638 51.2104 29.0814C51.028 28.7 50.9368 28.2653 50.9368 27.7782C50.9368 27.2912 51.0301 26.8766 51.2155 26.5043C51.401 26.1319 51.6591 25.8411 51.9907 25.6298C52.3223 25.4184 52.7067 25.3128 53.144 25.3128C53.5357 25.3128 53.8746 25.3933 54.1627 25.5543C54.4508 25.7153 54.6715 25.9458 54.8269 26.2456C54.9824 26.5465 55.0601 26.9078 55.0601 27.3294C55.0601 27.4401 55.058 27.5418 55.0528 27.6343C55.0477 27.7269 55.0373 27.8205 55.0207 27.9141L54.7503 27.6515C54.7565 27.5961 54.7606 27.5438 54.7606 27.4955V27.3496C54.7606 26.7589 54.6135 26.3231 54.3192 26.0444C54.0249 25.7646 53.6373 25.6257 53.1554 25.6257C52.7472 25.6257 52.401 25.7183 52.1171 25.9035C51.8332 26.0886 51.6166 26.3432 51.4705 26.6683C51.3233 26.9933 51.2497 27.3636 51.2497 27.7793V27.7984C51.2497 28.2462 51.3285 28.6356 51.486 28.9647C51.6435 29.2948 51.8819 29.5494 52.201 29.7295C52.5202 29.9096 52.9264 30.0002 53.4176 30.0002C53.5948 30.0002 53.771 29.9871 53.944 29.9609C54.1181 29.9348 54.2881 29.8955 54.4528 29.8412C54.6186 29.7879 54.7782 29.7174 54.9316 29.6289L54.9617 29.9599C54.8342 30.0344 54.6891 30.0978 54.5254 30.1501C54.3617 30.2025 54.1855 30.2417 53.9958 30.2699C53.8072 30.297 53.6135 30.3111 53.4166 30.3111L53.4155 30.3121ZM51.0974 27.9151V27.6323H54.8L55.0207 27.6615V27.9151H51.0974Z" fill="#14171C"/>
<path d="M56.5658 30.2246V25.4114L56.8663 25.3923V30.2246H56.5658ZM56.7368 27.9252V27.6424H60.1834V27.9252H56.7368ZM60.0021 30.2246V25.4114H60.3036V30.2246H60.0021Z" fill="#14171C"/>
<path d="M64.3067 30.3121C63.7886 30.3121 63.3482 30.2014 62.9876 29.978C62.6259 29.7557 62.3513 29.4548 62.1627 29.0764C61.9741 28.698 61.8788 28.2754 61.8788 27.8074C61.8788 27.3395 61.972 26.9128 62.1596 26.5365C62.3471 26.1601 62.6155 25.8612 62.9648 25.6429C63.314 25.4235 63.7316 25.3138 64.2166 25.3138C64.4072 25.3138 64.5948 25.3309 64.7782 25.3651C64.9617 25.3993 65.1347 25.4446 65.2974 25.502C65.4601 25.5593 65.6041 25.6227 65.7316 25.6942L65.6819 26.0253C65.4984 25.9216 65.3202 25.8401 65.1503 25.7817C64.9793 25.7234 64.8176 25.6831 64.6632 25.66C64.5098 25.6368 64.3637 25.6257 64.2269 25.6257C63.6114 25.6257 63.1181 25.822 62.7471 26.2154C62.3762 26.6089 62.1907 27.1392 62.1907 27.8084C62.1907 28.218 62.2684 28.5883 62.4238 28.9194C62.5793 29.2505 62.8135 29.5141 63.1264 29.7084C63.4394 29.9036 63.8332 30.0012 64.3078 30.0012C64.4653 30.0012 64.6218 29.9871 64.7793 29.9599C64.9368 29.9328 65.0922 29.8915 65.2456 29.8362C65.399 29.7808 65.5482 29.7094 65.6922 29.6218L65.7627 29.9529C65.6591 30.0143 65.5337 30.0726 65.3865 30.128C65.2394 30.1833 65.0746 30.2276 64.8922 30.2618C64.7098 30.296 64.515 30.3131 64.3078 30.3131L64.3067 30.3121Z" fill="#14171C"/>
<path d="M68.4601 30.2246V25.4607L68.5855 25.6942H66.5534V25.4114H70.6674V25.6942H68.6352L68.7606 25.4607V30.2246H68.4601Z" fill="#14171C"/>
<path d="M71.8808 25.4114H73.8974C74.2518 25.4114 74.5378 25.4587 74.7554 25.5523C74.9731 25.6469 75.1316 25.7787 75.2321 25.9498C75.3326 26.1198 75.3824 26.3241 75.3824 26.5616C75.3824 26.8706 75.3005 27.1201 75.1368 27.3123C74.9731 27.5035 74.7658 27.6374 74.515 27.7118V27.7601C74.6756 27.7793 74.8352 27.8296 74.9938 27.9091C75.1523 27.9886 75.285 28.1093 75.3896 28.2723C75.4943 28.4354 75.5482 28.6537 75.5482 28.9305C75.5482 29.1639 75.4953 29.3793 75.3896 29.5755C75.2839 29.7718 75.0922 29.9297 74.8124 30.0485C74.5326 30.1672 74.1326 30.2266 73.6114 30.2266H71.8808V25.4114ZM72.1813 29.9418H73.6311C74.0528 29.9418 74.3793 29.9006 74.6114 29.818C74.8435 29.7355 75.0062 29.6178 75.0984 29.4648C75.1907 29.3119 75.2363 29.1307 75.2363 28.9194C75.2363 28.536 75.1088 28.2713 74.8549 28.1254C74.601 27.9795 74.2342 27.906 73.7565 27.906H72.1109V27.6233H73.6715C74.0332 27.6233 74.314 27.575 74.5171 27.4794C74.7192 27.3838 74.8622 27.256 74.9461 27.097C75.0301 26.938 75.0715 26.7659 75.0715 26.5807C75.0715 26.2426 74.9668 26.0112 74.7575 25.8844C74.5482 25.7576 74.2549 25.6942 73.8767 25.6942H72.1813V29.9418Z" fill="#14171C"/>
<path d="M79.1295 30.3121C78.7554 30.3121 78.4207 30.2437 78.1264 30.1079C77.8321 29.971 77.5824 29.7858 77.3762 29.5504C77.1699 29.3149 77.0135 29.0442 76.9047 28.7393C76.7959 28.4344 76.742 28.1144 76.742 27.7793C76.742 27.2982 76.8435 26.8736 77.0456 26.5032C77.2477 26.1329 77.5285 25.8421 77.8881 25.6308C78.2477 25.4194 78.6611 25.3138 79.1295 25.3138C79.4912 25.3138 79.8155 25.3752 80.1057 25.4989C80.3948 25.6227 80.6435 25.7958 80.8508 26.0202C81.058 26.2446 81.2166 26.5063 81.3254 26.8041C81.4342 27.103 81.4881 27.4281 81.4881 27.7782C81.4881 28.2492 81.3907 28.6759 81.1948 29.0593C80.999 29.4427 80.7243 29.7466 80.3699 29.973C80.0155 30.1994 79.6021 30.3111 79.1306 30.3111L79.1295 30.3121ZM79.1295 30.0002C79.5876 30.0002 79.9679 29.8935 80.2705 29.6812C80.5731 29.4689 80.8 29.1931 80.9502 28.855C81.1005 28.5169 81.1762 28.1586 81.1762 27.7782C81.1762 27.3526 81.0933 26.9782 80.9275 26.6552C80.7617 26.3322 80.5264 26.0796 80.2197 25.8974C79.914 25.7153 79.5503 25.6247 79.1285 25.6247C78.6767 25.6247 78.2964 25.7203 77.9876 25.9125C77.6777 26.1037 77.4446 26.3634 77.2881 26.6894C77.1306 27.0155 77.0518 27.3787 77.0518 27.7782C77.0518 28.1778 77.1275 28.5169 77.2798 28.855C77.4321 29.1931 77.6622 29.4678 77.9699 29.6812C78.2777 29.8935 78.6642 30.0002 79.1285 30.0002H79.1295Z" fill="#14171C"/>
<path d="M84.9896 30.2246V25.4114L85.2902 25.3923V30.2246H84.9896ZM85.1606 27.9252V27.6424H88.6073V27.9252H85.1606ZM88.4259 30.2246V25.4114H88.7275V30.2246H88.4259Z" fill="#14171C"/>
<path d="M92.7803 30.3121C92.2249 30.3121 91.7648 30.2025 91.3979 29.9831C91.0321 29.7637 90.7575 29.4638 90.5751 29.0814C90.3927 28.7 90.3015 28.2653 90.3015 27.7782C90.3015 27.2912 90.3948 26.8766 90.5803 26.5043C90.7658 26.1319 91.0238 25.8411 91.3554 25.6298C91.687 25.4184 92.0715 25.3128 92.5088 25.3128C92.9005 25.3128 93.2394 25.3933 93.5275 25.5543C93.8155 25.7153 94.0363 25.9458 94.1917 26.2456C94.3471 26.5465 94.4249 26.9078 94.4249 27.3294C94.4249 27.4401 94.4228 27.5418 94.4176 27.6343C94.4124 27.7269 94.4021 27.8205 94.3855 27.9141L94.115 27.6515C94.1212 27.5961 94.1254 27.5438 94.1254 27.4955V27.3496C94.1254 26.7589 93.9782 26.3231 93.6839 26.0444C93.3896 25.7646 93.0021 25.6257 92.5202 25.6257C92.1119 25.6257 91.7658 25.7183 91.4819 25.9035C91.1979 26.0886 90.9813 26.3432 90.8352 26.6683C90.6881 26.9933 90.6145 27.3636 90.6145 27.7793V27.7984C90.6145 28.2462 90.6933 28.6356 90.8508 28.9647C91.0083 29.2948 91.2466 29.5494 91.5658 29.7295C91.885 29.9096 92.2912 30.0002 92.7824 30.0002C92.9596 30.0002 93.1358 29.9871 93.3088 29.9609C93.4829 29.9348 93.6529 29.8955 93.8176 29.8412C93.9834 29.7879 94.143 29.7174 94.2964 29.6289L94.3264 29.9599C94.199 30.0344 94.0539 30.0978 93.8902 30.1501C93.7264 30.2025 93.5502 30.2417 93.3606 30.2699C93.172 30.297 92.9782 30.3111 92.7813 30.3111L92.7803 30.3121ZM90.4622 27.9151V27.6323H94.1648L94.3855 27.6615V27.9151H90.4622Z" fill="#14171C"/>
<path d="M95.0777 31.5982V29.9418H100.385V31.5982H100.099L100.08 30.1662L100.225 30.2246H95.2383L95.3834 30.1662L95.3637 31.5982H95.0777ZM99.3067 30.1753V25.4597L99.4871 25.6932H96.6674L96.8083 25.4597C96.7948 25.671 96.7803 25.8763 96.7658 26.0756C96.7513 26.2758 96.7357 26.4861 96.7202 26.7085C96.7057 26.9309 96.6881 27.1865 96.6674 27.4753C96.6477 27.8104 96.6073 28.1335 96.5471 28.4474C96.487 28.7614 96.4052 29.0502 96.3016 29.3149C96.1979 29.5795 96.0674 29.811 95.9098 30.0092L95.5793 29.965C95.6829 29.8573 95.7886 29.7033 95.8974 29.5021C96.0062 29.3008 96.1047 29.0291 96.1938 28.6859C96.2819 28.3438 96.3451 27.9101 96.3824 27.3878C96.4124 26.9531 96.4373 26.5868 96.458 26.2889C96.4777 25.992 96.4984 25.6982 96.5181 25.4094H99.6083V30.1733H99.3078L99.3067 30.1753Z" fill="#14171C"/>
<path d="M101.564 25.4114H103.58C103.935 25.4114 104.221 25.4587 104.438 25.5523C104.656 25.6469 104.814 25.7787 104.915 25.9498C105.016 26.1198 105.065 26.3241 105.065 26.5616C105.065 26.8706 104.983 27.1201 104.82 27.3123C104.656 27.5035 104.449 27.6374 104.198 27.7118V27.7601C104.359 27.7793 104.518 27.8296 104.677 27.9091C104.835 27.9886 104.968 28.1093 105.073 28.2723C105.177 28.4354 105.231 28.6537 105.231 28.9305C105.231 29.1639 105.178 29.3793 105.073 29.5755C104.967 29.7718 104.775 29.9297 104.495 30.0485C104.216 30.1672 103.816 30.2266 103.294 30.2266H101.564V25.4114ZM101.864 29.9418H103.314C103.736 29.9418 104.062 29.9006 104.294 29.818C104.526 29.7355 104.689 29.6178 104.781 29.4648C104.874 29.3119 104.919 29.1307 104.919 28.9194C104.919 28.536 104.792 28.2713 104.538 28.1254C104.284 27.9795 103.917 27.906 103.439 27.906H101.794V27.6233H103.354C103.716 27.6233 103.997 27.575 104.2 27.4794C104.402 27.3838 104.545 27.256 104.629 27.097C104.713 26.938 104.754 26.7659 104.754 26.5807C104.754 26.2426 104.65 26.0112 104.44 25.8844C104.231 25.7576 103.938 25.6942 103.56 25.6942H101.864V29.9418Z" fill="#14171C"/>
<path d="M106.756 30.2246V25.4114L107.057 25.3963V29.6691H107.107L108.481 27.8034C108.772 27.4069 109.065 27.0074 109.362 26.6049C109.658 26.2024 109.951 25.8039 110.242 25.4114H110.534V30.2246H110.233V25.9619H110.183L108.819 27.8175C108.524 28.22 108.229 28.6225 107.934 29.0231C107.637 29.4246 107.343 29.8241 107.049 30.2236H106.757L106.756 30.2246Z" fill="#14171C"/>
<path d="M111.757 30.2246C112.058 29.9448 112.359 29.6681 112.658 29.3944C112.958 29.1197 113.254 28.8459 113.548 28.5732L114.491 27.7008L114.521 27.8859L113.658 27.0678C113.367 26.788 113.079 26.5133 112.793 26.2416C112.507 25.9709 112.215 25.6932 111.917 25.4114L112.334 25.3963C112.584 25.6368 112.838 25.8793 113.093 26.1249C113.349 26.3704 113.602 26.6129 113.853 26.8534L114.665 27.6333H115.167V27.906H114.695L113.737 28.7976C113.483 29.0351 113.228 29.2726 112.972 29.5111C112.716 29.7496 112.461 29.9881 112.207 30.2246H111.755H111.757ZM115.098 30.2246V25.4114H115.399V30.2246H115.098ZM118.284 30.2246C118.013 29.975 117.75 29.7325 117.496 29.499C117.242 29.2656 116.981 29.0261 116.714 28.7825L115.761 27.906H115.33V27.6333H115.831L116.629 26.8534C116.874 26.6129 117.12 26.3724 117.369 26.1299C117.618 25.8874 117.863 25.6489 118.104 25.4114H118.531L117.678 26.2396C117.394 26.5153 117.112 26.788 116.835 27.0577L115.982 27.8859L115.968 27.7008L116.921 28.5682C117.226 28.8439 117.53 29.1197 117.832 29.3944C118.135 29.6691 118.438 29.9458 118.743 30.2246H118.284Z" fill="#14171C"/>
<path d="M119.965 30.2246V25.4114L120.265 25.3963V29.6691H120.315L121.689 27.8034C121.98 27.4069 122.274 27.0074 122.57 26.6049C122.866 26.2024 123.16 25.8039 123.451 25.4114H123.742V30.2246H123.441V25.9619H123.392L122.027 27.8175C121.733 28.22 121.437 28.6225 121.142 29.0231C120.846 29.4246 120.551 29.8241 120.257 30.2236H119.966L119.965 30.2246Z" fill="#14171C"/>
<path d="M125.257 30.2246C125.301 29.8704 125.342 29.5252 125.382 29.1891C125.423 28.853 125.463 28.5189 125.503 28.1878L125.582 27.5206C125.626 27.1694 125.668 26.8182 125.71 26.466C125.751 26.1138 125.795 25.7616 125.837 25.4114H126.148C126.315 25.7757 126.484 26.141 126.655 26.5103C126.826 26.8786 126.993 27.2419 127.156 27.5991L128.135 29.7234H128.184L129.163 27.5991C129.33 27.2318 129.497 26.8665 129.667 26.5032C129.836 26.14 130.004 25.7757 130.172 25.4124H130.488C130.528 25.7566 130.569 26.1088 130.611 26.469C130.654 26.8293 130.694 27.1835 130.735 27.5307L130.81 28.1888C130.848 28.5139 130.886 28.847 130.925 29.1901C130.966 29.5333 131.006 29.8774 131.046 30.2256H130.74C130.693 29.8029 130.645 29.3763 130.595 28.9446C130.545 28.5129 130.496 28.0852 130.45 27.6635L130.264 26.0313H130.214L129.411 27.7752C129.224 28.1818 129.036 28.5883 128.847 28.9979C128.658 29.4075 128.469 29.816 128.282 30.2256H128.041C127.854 29.816 127.666 29.4085 127.48 29.0009C127.293 28.5934 127.106 28.1878 126.918 27.7853L126.111 26.0313H126.061L125.87 27.6535C125.821 28.0822 125.77 28.5108 125.72 28.9395C125.67 29.3682 125.62 29.7969 125.57 30.2256H125.259L125.257 30.2246Z" fill="#14171C"/>
<path d="M134.618 30.3121C134.244 30.3121 133.909 30.2437 133.615 30.1079C133.32 29.971 133.07 29.7858 132.864 29.5504C132.658 29.3149 132.502 29.0442 132.393 28.7393C132.284 28.4344 132.23 28.1144 132.23 27.7793C132.23 27.2982 132.332 26.8736 132.534 26.5032C132.736 26.1329 133.017 25.8421 133.376 25.6308C133.736 25.4194 134.149 25.3138 134.618 25.3138C134.979 25.3138 135.304 25.3752 135.594 25.4989C135.883 25.6227 136.132 25.7958 136.339 26.0202C136.546 26.2446 136.705 26.5063 136.813 26.8041C136.922 27.103 136.976 27.4281 136.976 27.7782C136.976 28.2492 136.879 28.6759 136.683 29.0593C136.487 29.4427 136.212 29.7466 135.858 29.973C135.504 30.1994 135.09 30.3111 134.619 30.3111L134.618 30.3121ZM134.618 30.0002C135.076 30.0002 135.456 29.8935 135.759 29.6812C136.061 29.4689 136.288 29.1931 136.438 28.855C136.589 28.5169 136.664 28.1586 136.664 27.7782C136.664 27.3526 136.581 26.9782 136.416 26.6552C136.25 26.3322 136.014 26.0796 135.708 25.8974C135.402 25.7153 135.038 25.6247 134.617 25.6247C134.165 25.6247 133.784 25.7203 133.476 25.9125C133.166 26.1037 132.933 26.3634 132.776 26.6894C132.619 27.0155 132.54 27.3787 132.54 27.7782C132.54 28.1778 132.616 28.5169 132.768 28.855C132.92 29.1931 133.15 29.4678 133.458 29.6812C133.766 29.8935 134.152 30.0002 134.617 30.0002H134.618Z" fill="#14171C"/>
<path d="M140.648 30.3121C140.13 30.3121 139.689 30.2014 139.328 29.978C138.967 29.7557 138.692 29.4548 138.504 29.0764C138.315 28.698 138.22 28.2754 138.22 27.8074C138.22 27.3395 138.313 26.9128 138.501 26.5365C138.688 26.1601 138.956 25.8612 139.306 25.6429C139.655 25.4235 140.073 25.3138 140.558 25.3138C140.748 25.3138 140.936 25.3309 141.119 25.3651C141.303 25.3993 141.476 25.4446 141.638 25.502C141.801 25.5593 141.945 25.6227 142.073 25.6942L142.023 26.0253C141.839 25.9216 141.661 25.8401 141.491 25.7817C141.32 25.7234 141.159 25.6831 141.004 25.66C140.851 25.6368 140.705 25.6257 140.568 25.6257C139.952 25.6257 139.459 25.822 139.088 26.2154C138.717 26.6089 138.532 27.1392 138.532 27.8084C138.532 28.218 138.609 28.5883 138.765 28.9194C138.92 29.2505 139.154 29.5141 139.467 29.7084C139.78 29.9036 140.174 30.0012 140.649 30.0012C140.806 30.0012 140.963 29.9871 141.12 29.9599C141.278 29.9328 141.433 29.8915 141.587 29.8362C141.74 29.7808 141.889 29.7094 142.033 29.6218L142.104 29.9529C142 30.0143 141.875 30.0726 141.727 30.128C141.58 30.1833 141.416 30.2276 141.233 30.2618C141.051 30.296 140.856 30.3131 140.649 30.3131L140.648 30.3121Z" fill="#14171C"/>
<path d="M144.801 30.2246V25.4607L144.926 25.6942H142.894V25.4114H147.008V25.6942H144.976L145.102 25.4607V30.2246H144.801Z" fill="#14171C"/>
<path d="M148.223 30.2246V25.4114L148.523 25.3963V29.6691H148.573L149.947 27.8034C150.238 27.4069 150.532 27.0074 150.828 26.6049C151.124 26.2024 151.418 25.8039 151.709 25.4114H152V30.2246H151.699V25.9619H151.65L150.285 27.8175C149.991 28.22 149.695 28.6225 149.4 29.0231C149.104 29.4246 148.809 29.8241 148.515 30.2236H148.224L148.223 30.2246Z" fill="#14171C"/>
<path d="M21.5731 23.91L23.542 22.8966V39.0459L21.5731 40.7426C21.5731 34.169 21.5731 23.91 21.5731 23.91Z" fill="#CFA56F"/>
<path d="M31.372 0V32.2986L26.5969 36.4134V24.707L23.542 22.8966V11.0855L18.9896 8.55667V42.9695L17.7927 44V8.43692L11.8798 11.7608L11.8321 22.2335L8.61244 20.405L7.6487 20.9424V38.8899L6.90052 38.2449V21.4807L5.93679 22.0181V37.4137L5.1886 36.7696V22.3562L4.22383 22.8946V35.9384L0 32.2986V0H31.372Z" fill="#CFA56F"/>
</svg>
