<svg width="242" height="70" viewBox="0 0 242 70" fill="none" xmlns="http://www.w3.org/2000/svg">
<path d="M84.3288 34.1883V31.8525C84.3288 30.0675 83.7942 29.0621 80.9845 29.0621H70.249C67.4063 29.0621 66.9047 30.0675 66.9047 31.8525V34.1883H66.7381V28.6714H68.1421C71.2851 25.0053 73.6262 16.5346 73.8275 8.38899C73.8275 7.38359 72.991 7.34997 71.6876 7.34997H71.0524V7.18827H84.4294V7.34997H83.7612C82.5915 7.34997 81.9546 7.38199 81.9546 8.25771V28.6698H84.4971V34.1867H84.3304L84.3288 34.1883ZM79.3132 28.6714V7.5773H74.0634C74.0304 15.9167 71.6563 24.7443 68.4457 28.6698H79.3149L79.3132 28.6714Z" fill="white"/>
<path d="M90.1478 21.4672C90.1478 24.2896 91.3522 28.4441 94.9967 28.4441C96.8033 28.4441 98.2073 27.6981 99.1098 26.3356L99.2434 26.4013C98.3063 28.1207 96.602 29.4847 94.0926 29.4847C88.8428 29.4847 87.4371 25.0709 87.4371 21.5664C87.4371 18.451 89.0094 13.4208 93.8253 13.4208C97.8724 13.4208 99.3771 16.9573 99.3771 19.6837C99.3771 20.268 99.3441 20.8844 99.2104 21.4688H90.1478V21.4672ZM96.0328 21.0781C97.0029 21.0781 96.9699 19.7157 96.9699 19.0977C96.9699 17.183 96.3017 13.6465 93.827 13.6465C91.0519 13.6465 90.1824 18.7744 90.1478 21.0781H96.0328Z" fill="white"/>
<path d="M115.329 14.0035C114.226 14.0035 113.624 14.0692 113.624 14.9129V27.991C113.624 28.9644 114.359 28.9004 115.463 28.9004H116.065V29.0621H108.842V28.9004H109.444C110.548 28.9004 111.284 28.966 111.284 27.991V14.2309H106.937V22.2788C106.937 25.5896 106.468 29.9698 102.791 29.9698C101.586 29.9698 100.85 29.2238 100.618 28.6714C100.618 27.9254 101.019 27.4051 101.688 27.4051C102.725 27.4051 103.528 28.5738 103.662 29.6768C105.835 29.2222 106.706 26.2044 106.706 22.4085V14.9769C106.706 14.0676 105.869 14.0035 104.566 14.0035H103.898V13.8418H115.97V14.0035H115.329Z" fill="white"/>
<path d="M131.247 21.4672C131.247 24.7123 129.809 29.4831 124.793 29.4831C119.777 29.4831 118.306 24.7459 118.306 21.4672C118.306 18.1884 119.911 13.4192 124.793 13.4192C129.675 13.4192 131.247 18.254 131.247 21.4672ZM128.672 21.3055C128.538 19.1314 127.568 13.5168 124.191 13.6801C120.814 13.8418 120.746 19.4564 120.88 21.6625C121.046 23.8686 122.016 29.3855 125.361 29.2238C128.771 29.0941 128.838 23.5452 128.672 21.3055Z" fill="white"/>
<path d="M140.244 29.0605H133.488V28.8988H133.922C134.992 28.8988 135.628 28.8331 135.628 28.0231V14.8792C135.628 14.0676 135.093 14.0035 133.956 14.0035H133.488V13.8418H140.41C143.654 13.8418 145.327 15.0425 145.327 17.476C145.327 19.229 144.291 20.6235 141.95 21.0781C144.858 21.4031 146.096 22.8312 146.096 25.1013C146.096 27.7621 143.788 29.0605 140.244 29.0605ZM138.003 14.0676V20.9789H139.909C142.384 20.9789 143.12 19.3235 143.12 17.4744C143.12 15.6253 142.217 14.0676 139.909 14.0676H138.003ZM138.003 28.8315H140.11C142.719 28.8315 143.755 27.0465 143.755 25.0341C143.755 23.0217 142.852 21.2046 140.01 21.2046H138.003V28.8315Z" fill="white"/>
<path d="M161.245 21.4672C161.245 24.7123 159.806 29.4831 154.791 29.4831C149.775 29.4831 148.303 24.7459 148.303 21.4672C148.303 18.1884 149.909 13.4192 154.791 13.4192C159.672 13.4192 161.245 18.254 161.245 21.4672ZM158.669 21.3055C158.536 19.1314 157.566 13.5168 154.188 13.6801C150.811 13.8418 150.743 19.4564 150.877 21.6625C151.044 23.8686 152.014 29.3855 155.358 29.2238C158.768 29.0941 158.836 23.5452 158.669 21.3055Z" fill="white"/>
<path d="M179.738 14.0035C178.634 14.0035 177.898 13.9379 177.898 14.9129V27.991C177.898 28.9644 178.634 28.9004 179.738 28.9004H180.34V29.0621H173.117V28.9004H173.719C174.79 28.9004 175.526 28.966 175.526 27.991V15.7229L168.268 27.5668V27.9878C168.301 28.9612 169.004 28.8972 170.108 28.8972H170.71V29.0589H163.487V28.8972H164.089C165.193 28.8972 165.929 28.9628 165.929 27.9878V14.9113C165.929 13.9379 165.193 14.0019 164.089 14.0019H163.487V13.8402H170.71V14.0019H170.108C169.004 14.0019 168.301 13.9363 168.268 14.9113V27.0801L175.526 15.2347V14.9097C175.526 13.9363 174.79 14.0003 173.719 14.0003H173.117V13.8386H180.34V14.0003H179.738V14.0035ZM169.773 11.6998C170.207 12.0247 170.977 12.2841 171.812 12.2841C172.647 12.2841 173.417 12.0247 173.851 11.6998C173.818 11.2131 173.317 9.29833 173.851 8.68196C174.086 8.42261 174.42 8.29293 174.754 8.29293C175.188 8.29293 175.656 8.52026 175.958 8.87728C176.092 9.46162 175.925 10.0124 175.691 10.467C175.323 11.149 174.453 12.5114 171.812 12.5114C169.171 12.5114 168.301 11.149 167.933 10.467C167.699 10.0124 167.532 9.46162 167.666 8.87728C167.968 8.52026 168.402 8.29293 168.87 8.29293C169.205 8.29293 169.539 8.42261 169.773 8.68196C170.307 9.29833 169.806 11.2131 169.773 11.6998Z" fill="white"/>
<path d="M205.288 28.8011V34.1227H205.121V32.1103C205.121 30.3909 204.854 29.1901 202.044 29.1901H193.583C190.774 29.1901 190.507 30.3909 190.507 32.1103V34.1227H190.34V28.8011H191.779C194.554 25.4263 195.657 18.222 195.859 14.9449C195.826 14.0692 195.022 14.0035 193.719 14.0035H193.084V13.8418H205.19V14.0035H204.555C203.451 14.0035 202.849 14.0355 202.849 14.8792V28.8011H205.291H205.288ZM200.505 28.8011V14.2309H196.124C196.091 16.9573 195.053 25.0373 192.077 28.8011H200.505Z" fill="white"/>
<path d="M220.537 21.4672C220.537 24.7123 219.098 29.4831 214.083 29.4831C209.067 29.4831 207.596 24.7459 207.596 21.4672C207.596 18.1884 209.201 13.4192 214.083 13.4192C218.965 13.4192 220.537 18.254 220.537 21.4672ZM217.962 21.3055C217.828 19.1314 216.858 13.5168 213.481 13.6801C210.103 13.8418 210.036 19.4564 210.169 21.6625C210.336 23.8686 211.306 29.3855 214.65 29.2238C218.061 29.0941 218.128 23.5452 217.962 21.3055Z" fill="white"/>
<path d="M241.271 14.0035C240.101 14.0035 239.398 13.9379 239.398 14.9129V27.991C239.398 28.9644 240.101 28.9004 241.205 28.9004H241.807V29.0621H234.584V28.9004H235.219C236.29 28.9004 237.026 28.966 237.026 27.991V14.5879L232.411 27.7621H231.207L226.023 14.8792L226.056 27.8918C226.056 28.9628 227.026 28.8972 228.229 28.8972H229.499V29.0589H223.279V28.8972H224.249C225.119 28.8972 225.787 28.9292 225.787 27.8918V15.0089C225.787 13.9699 225.084 14.0035 224.149 14.0035H223.279V13.8418H227.994L232.777 25.6857L237.024 13.8418H241.807V14.0035H241.271Z" fill="white"/>
<path d="M68.5265 48.2239C68.0151 48.2239 67.5795 48.1342 67.2198 47.9565C66.8602 47.7788 66.5863 47.5322 66.3966 47.2169C66.2068 46.9015 66.1128 46.5349 66.1128 46.117C66.1128 45.6992 66.192 45.3774 66.3487 45.1052C66.5054 44.8346 66.71 44.6137 66.9641 44.4424C67.2165 44.2727 67.4904 44.1382 67.7824 44.039C68.0745 43.9413 68.3599 43.8629 68.6371 43.8068L71.4006 43.2481C71.4269 42.5357 71.3461 42.001 71.1564 41.6472C70.9666 41.2933 70.7093 41.058 70.3809 40.9411C70.0526 40.8243 69.6946 40.7666 69.3069 40.7666C69.1254 40.7666 68.9324 40.7778 68.7278 40.797C68.5232 40.8179 68.3071 40.8515 68.0811 40.8979C67.855 40.9443 67.6092 41.0084 67.3469 41.0884C67.0829 41.1685 66.7991 41.2677 66.4956 41.3862L66.4477 40.8739C66.6391 40.7906 66.8503 40.7138 67.0829 40.6418C67.3139 40.5697 67.5564 40.5057 67.8105 40.448C68.0629 40.3904 68.317 40.3472 68.5727 40.3168C68.8284 40.2863 69.0726 40.2703 69.3069 40.2703C69.8233 40.2703 70.2737 40.3584 70.6565 40.5345C71.0392 40.7106 71.3362 40.986 71.5474 41.3638C71.7569 41.7416 71.8625 42.2299 71.8625 42.8287V48.083H71.3989V46.8422H71.3032C71.1217 47.0904 70.8891 47.3193 70.6037 47.529C70.3183 47.7388 69.9982 47.9069 69.6418 48.0333C69.2854 48.1598 68.9126 48.2239 68.5232 48.2239H68.5265ZM68.5265 47.7276C68.873 47.7276 69.226 47.6667 69.5857 47.5451C69.9454 47.4234 70.282 47.2281 70.5954 46.9591C70.9089 46.6902 71.1729 46.3363 71.3857 45.8977L71.4022 43.6035C71.3016 43.6499 71.1646 43.7012 70.9947 43.7588C70.8248 43.8164 70.5707 43.8821 70.2358 43.9605C69.9008 44.0374 69.4323 44.1302 68.8301 44.2391C68.4308 44.3111 68.0629 44.4168 67.728 44.5529C67.3931 44.6906 67.1225 44.8827 66.9179 45.1308C66.7133 45.379 66.611 45.7024 66.611 46.0994C66.611 46.6885 66.7909 47.1064 67.1505 47.3545C67.5102 47.6027 67.9689 47.726 68.5282 47.726L68.5265 47.7276Z" fill="white"/>
<path d="M74.819 48.0846V40.4272H79.7702V40.8771H74.9939L75.2975 40.5057V48.0846H74.819Z" fill="white"/>
<path d="M85.0432 48.2239C84.1588 48.2239 83.4263 48.0494 82.8423 47.7003C82.2599 47.3513 81.8227 46.8743 81.5323 46.2659C81.2419 45.6591 81.0967 44.9675 81.0967 44.1927C81.0967 43.4178 81.2452 42.7582 81.5405 42.1659C81.8359 41.5735 82.2467 41.1108 82.7746 40.7746C83.3026 40.4384 83.9147 40.2703 84.6109 40.2703C85.2346 40.2703 85.774 40.3984 86.2327 40.6546C86.6914 40.9107 87.0428 41.2773 87.2903 41.7544C87.5377 42.2331 87.6615 42.8078 87.6615 43.4786C87.6615 43.6547 87.6582 43.8164 87.6499 43.9637C87.6417 44.111 87.6252 44.2599 87.5988 44.4088L87.1682 43.9909C87.1781 43.9029 87.1847 43.8196 87.1847 43.7428V43.5107C87.1847 42.5709 86.9504 41.8777 86.4818 41.4342C86.0133 40.9892 85.3962 40.7682 84.6291 40.7682C83.979 40.7682 83.428 40.9155 82.9759 41.2101C82.5238 41.5047 82.179 41.9097 81.9464 42.4268C81.7121 42.9439 81.595 43.5331 81.595 44.1943V44.2247C81.595 44.9371 81.7204 45.5567 81.9711 46.0802C82.2219 46.6053 82.6014 47.0103 83.1095 47.2969C83.6177 47.5835 84.2644 47.7276 85.0465 47.7276C85.3286 47.7276 85.6091 47.7068 85.8846 47.6651C86.1618 47.6235 86.4323 47.5611 86.6947 47.4746C86.9586 47.3898 87.2127 47.2777 87.4569 47.1368L87.5047 47.6635C87.3018 47.782 87.0708 47.8829 86.8102 47.9661C86.5495 48.0494 86.269 48.1118 85.9671 48.1566C85.6668 48.1998 85.3583 48.2223 85.0448 48.2223L85.0432 48.2239ZM81.3524 44.4104V43.9605H87.2474L87.5988 44.007V44.4104H81.3524Z" fill="white"/>
<path d="M90.0587 48.0846V40.4272L90.5372 40.3968V48.0846H90.0587ZM90.3309 44.4264V43.9765H95.8183V44.4264H90.3309ZM95.5296 48.0846V40.4272H96.0097V48.0846H95.5296Z" fill="white"/>
<path d="M102.383 48.2239C101.558 48.2239 100.857 48.0478 100.283 47.6923C99.707 47.3385 99.2698 46.8598 98.9695 46.2579C98.6693 45.6559 98.5175 44.9835 98.5175 44.2391C98.5175 43.4946 98.666 42.8158 98.9646 42.2171C99.2632 41.6183 99.6905 41.1429 100.247 40.7954C100.803 40.4464 101.467 40.2719 102.24 40.2719C102.543 40.2719 102.842 40.2991 103.134 40.3536C103.426 40.408 103.701 40.4801 103.96 40.5713C104.219 40.6626 104.449 40.7634 104.652 40.8771L104.572 41.4038C104.28 41.2389 103.997 41.1092 103.726 41.0164C103.454 40.9235 103.196 40.8595 102.951 40.8227C102.706 40.7858 102.474 40.7682 102.256 40.7682C101.276 40.7682 100.491 41.0804 99.9001 41.7064C99.3094 42.3324 99.0141 43.1761 99.0141 44.2407C99.0141 44.8923 99.1378 45.4814 99.3853 46.0081C99.6328 46.5349 100.006 46.9543 100.504 47.2633C101.002 47.5739 101.629 47.7292 102.385 47.7292C102.636 47.7292 102.885 47.7068 103.135 47.6635C103.386 47.6203 103.634 47.5547 103.878 47.4666C104.122 47.3786 104.36 47.2649 104.589 47.1256L104.701 47.6523C104.536 47.75 104.337 47.8428 104.102 47.9309C103.868 48.0189 103.606 48.0894 103.315 48.1438C103.025 48.1982 102.715 48.2255 102.385 48.2255L102.383 48.2239Z" fill="white"/>
<path d="M108.996 48.0846V40.5057L109.195 40.8771H105.96V40.4272H112.51V40.8771H109.275L109.474 40.5057V48.0846H108.996Z" fill="white"/>
<path d="M114.442 40.4272H117.652C118.217 40.4272 118.672 40.5025 119.019 40.6514C119.365 40.8018 119.617 41.0116 119.777 41.2837C119.937 41.5543 120.017 41.8793 120.017 42.2571C120.017 42.7486 119.886 43.1456 119.626 43.4514C119.365 43.7556 119.035 43.9685 118.636 44.087V44.1638C118.891 44.1943 119.146 44.2743 119.398 44.4008C119.65 44.5273 119.862 44.7194 120.028 44.9787C120.195 45.2381 120.281 45.5855 120.281 46.0257C120.281 46.3972 120.197 46.7398 120.028 47.052C119.86 47.3641 119.555 47.6155 119.109 47.8044C118.664 47.9933 118.027 48.0878 117.197 48.0878H114.442V40.4272ZM114.92 47.6347H117.228C117.9 47.6347 118.42 47.5691 118.789 47.4378C119.159 47.3065 119.418 47.1192 119.565 46.8759C119.711 46.6325 119.784 46.3443 119.784 46.0081C119.784 45.3982 119.581 44.9771 119.177 44.745C118.773 44.5129 118.189 44.396 117.428 44.396H114.808V43.9461H117.293C117.869 43.9461 118.316 43.8693 118.639 43.7172C118.961 43.5651 119.188 43.3618 119.322 43.1088C119.456 42.8559 119.522 42.5821 119.522 42.2875C119.522 41.7496 119.355 41.3814 119.022 41.1797C118.689 40.978 118.222 40.8771 117.619 40.8771H114.92V47.6347Z" fill="white"/>
<path d="M125.983 48.2239C125.387 48.2239 124.854 48.115 124.385 47.8989C123.917 47.6811 123.519 47.3866 123.191 47.0119C122.863 46.6373 122.614 46.2067 122.44 45.7216C122.267 45.2365 122.181 44.7274 122.181 44.1943C122.181 43.429 122.343 42.7534 122.665 42.1643C122.986 41.5751 123.434 41.1124 124.006 40.7762C124.579 40.44 125.237 40.2719 125.983 40.2719C126.558 40.2719 127.075 40.3696 127.537 40.5665C127.997 40.7634 128.393 41.0388 128.723 41.3958C129.053 41.7528 129.305 42.1691 129.479 42.6429C129.652 43.1184 129.738 43.6355 129.738 44.1927C129.738 44.9419 129.583 45.6207 129.271 46.2307C128.959 46.8406 128.522 47.3241 127.957 47.6843C127.393 48.0446 126.735 48.2223 125.984 48.2223L125.983 48.2239ZM125.983 47.7276C126.712 47.7276 127.317 47.5579 127.799 47.2201C128.281 46.8823 128.642 46.4436 128.881 45.9057C129.121 45.3678 129.241 44.7978 129.241 44.1927C129.241 43.5155 129.109 42.9199 128.845 42.406C128.581 41.8921 128.207 41.4903 127.718 41.2005C127.231 40.9107 126.652 40.7666 125.981 40.7666C125.262 40.7666 124.656 40.9187 124.164 41.2245C123.671 41.5287 123.3 41.9417 123.051 42.4604C122.8 42.9791 122.675 43.5571 122.675 44.1927C122.675 44.8282 122.795 45.3678 123.038 45.9057C123.28 46.4436 123.646 46.8807 124.136 47.2201C124.626 47.5579 125.242 47.7276 125.981 47.7276H125.983Z" fill="white"/>
<path d="M135.312 48.0846V40.4272L135.791 40.3968V48.0846H135.312ZM135.585 44.4264V43.9765H141.072V44.4264H135.585ZM140.783 48.0846V40.4272H141.263V48.0846H140.783Z" fill="white"/>
<path d="M147.716 48.2239C146.832 48.2239 146.099 48.0494 145.515 47.7003C144.933 47.3513 144.495 46.8743 144.205 46.2659C143.915 45.6591 143.77 44.9675 143.77 44.1927C143.77 43.4178 143.918 42.7582 144.213 42.1659C144.509 41.5735 144.92 41.1108 145.447 40.7746C145.975 40.4384 146.588 40.2703 147.284 40.2703C147.907 40.2703 148.447 40.3984 148.906 40.6546C149.364 40.9107 149.716 41.2773 149.963 41.7544C150.211 42.2331 150.334 42.8078 150.334 43.4786C150.334 43.6547 150.331 43.8164 150.323 43.9637C150.315 44.111 150.298 44.2599 150.272 44.4088L149.841 43.9909C149.851 43.9029 149.858 43.8196 149.858 43.7428V43.5107C149.858 42.5709 149.623 41.8777 149.155 41.4342C148.686 40.9892 148.069 40.7682 147.302 40.7682C146.652 40.7682 146.101 40.9155 145.649 41.2101C145.197 41.5047 144.852 41.9097 144.619 42.4268C144.385 42.9439 144.268 43.5331 144.268 44.1943V44.2247C144.268 44.9371 144.393 45.5567 144.644 46.0802C144.895 46.6053 145.274 47.0103 145.782 47.2969C146.291 47.5835 146.937 47.7276 147.719 47.7276C148.001 47.7276 148.282 47.7068 148.557 47.6651C148.835 47.6235 149.105 47.5611 149.368 47.4746C149.631 47.3898 149.886 47.2777 150.13 47.1368L150.178 47.6635C149.975 47.782 149.744 47.8829 149.483 47.9661C149.222 48.0494 148.942 48.1118 148.64 48.1566C148.34 48.1998 148.031 48.2223 147.718 48.2223L147.716 48.2239ZM144.025 44.4104V43.9605H149.92L150.272 44.007V44.4104H144.025Z" fill="white"/>
<path d="M151.374 50.2699V47.6347H159.824V50.2699H159.369L159.338 47.9917L159.569 48.0846H151.629L151.86 47.9917L151.829 50.2699H151.374ZM158.107 48.0061V40.5041L158.394 40.8755H153.905L154.129 40.5041C154.108 40.8403 154.084 41.1669 154.061 41.4839C154.038 41.8024 154.013 42.137 153.989 42.4909C153.966 42.8447 153.938 43.2513 153.905 43.7108C153.873 44.2439 153.809 44.7578 153.713 45.2573C153.618 45.7568 153.487 46.2163 153.322 46.6373C153.157 47.0584 152.949 47.4266 152.699 47.742L152.172 47.6715C152.337 47.5002 152.506 47.2553 152.679 46.9351C152.852 46.6149 153.009 46.1826 153.151 45.6367C153.291 45.0924 153.392 44.4024 153.451 43.5715C153.499 42.8799 153.538 42.2971 153.571 41.8232C153.603 41.351 153.636 40.8835 153.667 40.424H158.587V48.0029H158.108L158.107 48.0061Z" fill="white"/>
<path d="M161.7 40.4272H164.911C165.475 40.4272 165.93 40.5025 166.277 40.6514C166.623 40.8018 166.876 41.0116 167.036 41.2837C167.196 41.5543 167.275 41.8793 167.275 42.2571C167.275 42.7486 167.145 43.1456 166.884 43.4514C166.623 43.7556 166.293 43.9685 165.894 44.087V44.1638C166.15 44.1943 166.404 44.2743 166.656 44.4008C166.909 44.5273 167.12 44.7194 167.287 44.9787C167.453 45.2381 167.539 45.5855 167.539 46.0257C167.539 46.3972 167.455 46.7398 167.287 47.052C167.118 47.3641 166.813 47.6155 166.368 47.8044C165.922 47.9933 165.285 48.0878 164.455 48.0878H161.7V40.4272ZM162.179 47.6347H164.487C165.158 47.6347 165.678 47.5691 166.047 47.4378C166.417 47.3065 166.676 47.1192 166.823 46.8759C166.97 46.6325 167.042 46.3443 167.042 46.0081C167.042 45.3982 166.839 44.9771 166.435 44.745C166.031 44.5129 165.447 44.396 164.686 44.396H162.066V43.9461H164.551C165.127 43.9461 165.574 43.8693 165.897 43.7172C166.219 43.5651 166.447 43.3618 166.58 43.1088C166.714 42.8559 166.78 42.5821 166.78 42.2875C166.78 41.7496 166.613 41.3814 166.28 41.1797C165.947 40.978 165.48 40.8771 164.878 40.8771H162.179V47.6347Z" fill="white"/>
<path d="M169.968 48.0846V40.4272L170.446 40.4032V47.2008H170.525L172.713 44.2327C173.176 43.6019 173.643 42.9663 174.115 42.326C174.587 41.6856 175.054 41.0516 175.518 40.4272H175.981V48.0846H175.503V41.3029H175.424L173.251 44.2551C172.782 44.8955 172.312 45.5359 171.842 46.173C171.37 46.8118 170.901 47.4474 170.433 48.083H169.969L169.968 48.0846Z" fill="white"/>
<path d="M177.93 48.0846C178.408 47.6395 178.887 47.1992 179.363 46.7638C179.84 46.3267 180.312 45.8913 180.781 45.4574L182.282 44.0694L182.33 44.364L180.956 43.0624C180.492 42.6173 180.033 42.1803 179.578 41.748C179.123 41.3174 178.657 40.8755 178.184 40.4272L178.847 40.4032C179.246 40.7858 179.651 41.1717 180.056 41.5623C180.464 41.9529 180.866 42.3388 181.266 42.7214L182.559 43.9621H183.358V44.396H182.607L181.081 45.8144C180.677 46.1923 180.271 46.5701 179.863 46.9495C179.456 47.3289 179.05 47.7084 178.646 48.0846H177.926H177.93ZM183.249 48.0846V40.4272H183.727V48.0846H183.249ZM188.32 48.0846C187.89 47.6875 187.471 47.3017 187.067 46.9303C186.662 46.5589 186.247 46.1778 185.821 45.7904L184.303 44.396H183.617V43.9621H184.415L185.686 42.7214C186.075 42.3388 186.468 41.9561 186.864 41.5703C187.26 41.1845 187.651 40.805 188.033 40.4272H188.713L187.355 41.7448C186.903 42.1835 186.454 42.6173 186.014 43.0464L184.656 44.364L184.633 44.0694L186.151 45.4494C186.636 45.8881 187.119 46.3267 187.601 46.7638C188.083 47.2008 188.566 47.6411 189.051 48.0846H188.32Z" fill="white"/>
<path d="M190.997 48.0846V40.4272L191.475 40.4032V47.2008H191.554L193.742 44.2327C194.205 43.6019 194.672 42.9663 195.144 42.326C195.616 41.6856 196.083 41.0516 196.547 40.4272H197.01V48.0846H196.532V41.3029H196.453L194.28 44.2551C193.811 44.8955 193.341 45.5359 192.871 46.173C192.399 46.8118 191.93 47.4474 191.462 48.083H190.998L190.997 48.0846Z" fill="white"/>
<path d="M199.422 48.0846C199.492 47.521 199.558 46.9719 199.622 46.4372C199.686 45.9025 199.751 45.371 199.813 44.8442L199.94 43.7828C200.01 43.2241 200.077 42.6654 200.143 42.105C200.209 41.5447 200.279 40.9844 200.346 40.4272H200.841C201.107 41.0068 201.376 41.5879 201.648 42.1755C201.92 42.7614 202.186 43.3394 202.446 43.9077L204.004 47.2873H204.083L205.641 43.9077C205.906 43.3233 206.174 42.7422 206.444 42.1643C206.713 41.5863 206.98 41.0068 207.248 40.4288H207.751C207.815 40.9764 207.879 41.5367 207.947 42.1098C208.015 42.683 208.079 43.2465 208.143 43.7988L208.264 44.8459C208.323 45.363 208.384 45.8929 208.447 46.4388C208.511 46.9847 208.576 47.5322 208.638 48.0862H208.152C208.077 47.4138 208 46.735 207.921 46.0482C207.841 45.3614 207.764 44.681 207.69 44.0102L207.394 41.4134H207.315L206.037 44.1879C205.738 44.8346 205.439 45.4814 205.137 46.133C204.837 46.7846 204.537 47.4346 204.238 48.0862H203.855C203.557 47.4346 203.258 46.7862 202.961 46.1378C202.664 45.4894 202.366 44.8442 202.067 44.2039L200.782 41.4134H200.703L200.399 43.9941C200.32 44.6761 200.239 45.3582 200.16 46.0402C200.081 46.7222 200 47.4042 199.921 48.0862H199.426L199.422 48.0846Z" fill="white"/>
<path d="M214.325 48.2239C213.73 48.2239 213.197 48.115 212.728 47.8989C212.26 47.6811 211.862 47.3866 211.534 47.0119C211.206 46.6373 210.956 46.2067 210.783 45.7216C210.61 45.2365 210.524 44.7274 210.524 44.1943C210.524 43.429 210.686 42.7534 211.008 42.1643C211.329 41.5751 211.776 41.1124 212.349 40.7762C212.921 40.44 213.58 40.2719 214.325 40.2719C214.901 40.2719 215.418 40.3696 215.88 40.5665C216.34 40.7634 216.736 41.0388 217.066 41.3958C217.396 41.7528 217.648 42.1691 217.821 42.6429C217.995 43.1184 218.08 43.6355 218.08 44.1927C218.08 44.9419 217.925 45.6207 217.614 46.2307C217.302 46.8406 216.865 47.3241 216.3 47.6843C215.736 48.0446 215.078 48.2223 214.327 48.2223L214.325 48.2239ZM214.325 47.7276C215.055 47.7276 215.66 47.5579 216.142 47.2201C216.624 46.8823 216.985 46.4436 217.224 45.9057C217.463 45.3678 217.584 44.7978 217.584 44.1927C217.584 43.5155 217.452 42.9199 217.188 42.406C216.924 41.8921 216.549 41.4903 216.061 41.2005C215.574 40.9107 214.995 40.7666 214.324 40.7666C213.604 40.7666 212.999 40.9187 212.507 41.2245C212.014 41.5287 211.643 41.9417 211.394 42.4604C211.143 42.9791 211.017 43.5571 211.017 44.1927C211.017 44.8282 211.138 45.3678 211.38 45.9057C211.623 46.4436 211.989 46.8807 212.479 47.2201C212.969 47.5579 213.585 47.7276 214.324 47.7276H214.325Z" fill="white"/>
<path d="M223.926 48.2239C223.101 48.2239 222.4 48.0478 221.826 47.6923C221.25 47.3385 220.813 46.8598 220.512 46.2579C220.212 45.6559 220.06 44.9835 220.06 44.2391C220.06 43.4946 220.209 42.8158 220.507 42.2171C220.806 41.6183 221.233 41.1429 221.789 40.7954C222.345 40.4464 223.01 40.2719 223.782 40.2719C224.086 40.2719 224.385 40.2991 224.677 40.3536C224.969 40.408 225.244 40.4801 225.503 40.5713C225.762 40.6626 225.991 40.7634 226.194 40.8771L226.115 41.4038C225.823 41.2389 225.539 41.1092 225.269 41.0164C224.997 40.9235 224.739 40.8595 224.493 40.8227C224.249 40.7858 224.017 40.7682 223.799 40.7682C222.819 40.7682 222.033 41.0804 221.443 41.7064C220.852 42.3324 220.557 43.1761 220.557 44.2407C220.557 44.8923 220.681 45.4814 220.928 46.0081C221.176 46.5349 221.548 46.9543 222.047 47.2633C222.545 47.5739 223.172 47.7292 223.928 47.7292C224.178 47.7292 224.427 47.7068 224.678 47.6635C224.929 47.6203 225.176 47.5547 225.421 47.4666C225.665 47.3786 225.902 47.2649 226.132 47.1256L226.244 47.6523C226.079 47.75 225.879 47.8428 225.645 47.9309C225.411 48.0189 225.148 48.0894 224.858 48.1438C224.568 48.1982 224.257 48.2255 223.928 48.2255L223.926 48.2239Z" fill="white"/>
<path d="M230.538 48.0846V40.5057L230.738 40.8771H227.503V40.4272H234.053V40.8771H230.817L231.017 40.5057V48.0846H230.538Z" fill="white"/>
<path d="M235.986 48.0846V40.4272L236.465 40.4032V47.2008H236.544L238.732 44.2327C239.195 43.6019 239.662 42.9663 240.134 42.326C240.606 41.6856 241.073 41.0516 241.536 40.4272H242V48.0846H241.522V41.3029H241.442L239.269 44.2551C238.801 44.8955 238.331 45.5359 237.861 46.173C237.389 46.8118 236.92 47.4474 236.452 48.083H235.988L235.986 48.0846Z" fill="white"/>
<path d="M34.3466 38.0386L37.4813 36.4264V62.1185L34.3466 64.8177C34.3466 54.3598 34.3466 38.0386 34.3466 38.0386Z" fill="#CFA56F"/>
<path d="M49.9476 0V51.3841L42.345 57.9304V39.3066L37.4813 36.4264V17.6361L30.2335 13.6129V68.3606L28.3279 70V13.4224L18.9139 18.7103L18.838 35.3714L13.7119 32.4625L12.1775 33.3174V61.8704L10.9864 60.8442V34.1739L9.45199 35.0288V59.5218L8.2608 58.4972V35.5667L6.72479 36.4232V57.1748L0 51.3841V0H49.9476Z" fill="#CFA56F"/>
</svg>
